G04 #@! TF.GenerationSoftware,KiCad,Pcbnew,9.0.2*
G04 #@! TF.CreationDate,2025-06-30T22:37:17+03:00*
G04 #@! TF.ProjectId,Fidget_keychain,46696467-6574-45f6-9b65-79636861696e,7*
G04 #@! TF.SameCoordinates,Original*
G04 #@! TF.FileFunction,Copper,L1,Top*
G04 #@! TF.FilePolarity,Positive*
%FSLAX46Y46*%
G04 Gerber Fmt 4.6, Leading zero omitted, Abs format (unit mm)*
G04 Created by KiCad (PCBNEW 9.0.2) date 2025-06-30 22:37:17*
%MOMM*%
%LPD*%
G01*
G04 APERTURE LIST*
G04 Aperture macros list*
%AMRoundRect*
0 Rectangle with rounded corners*
0 $1 Rounding radius*
0 $2 $3 $4 $5 $6 $7 $8 $9 X,Y pos of 4 corners*
0 Add a 4 corners polygon primitive as box body*
4,1,4,$2,$3,$4,$5,$6,$7,$8,$9,$2,$3,0*
0 Add four circle primitives for the rounded corners*
1,1,$1+$1,$2,$3*
1,1,$1+$1,$4,$5*
1,1,$1+$1,$6,$7*
1,1,$1+$1,$8,$9*
0 Add four rect primitives between the rounded corners*
20,1,$1+$1,$2,$3,$4,$5,0*
20,1,$1+$1,$4,$5,$6,$7,0*
20,1,$1+$1,$6,$7,$8,$9,0*
20,1,$1+$1,$8,$9,$2,$3,0*%
%AMRotRect*
0 Rectangle, with rotation*
0 The origin of the aperture is its center*
0 $1 length*
0 $2 width*
0 $3 Rotation angle, in degrees counterclockwise*
0 Add horizontal line*
21,1,$1,$2,0,0,$3*%
G04 Aperture macros list end*
G04 #@! TA.AperFunction,ComponentPad*
%ADD10C,1.600000*%
G04 #@! TD*
G04 #@! TA.AperFunction,ComponentPad*
%ADD11C,2.000000*%
G04 #@! TD*
G04 #@! TA.AperFunction,ComponentPad*
%ADD12R,1.700000X1.700000*%
G04 #@! TD*
G04 #@! TA.AperFunction,ComponentPad*
%ADD13C,1.700000*%
G04 #@! TD*
G04 #@! TA.AperFunction,ComponentPad*
%ADD14R,1.800000X1.800000*%
G04 #@! TD*
G04 #@! TA.AperFunction,ComponentPad*
%ADD15C,1.800000*%
G04 #@! TD*
G04 #@! TA.AperFunction,ComponentPad*
%ADD16R,1.100000X1.800000*%
G04 #@! TD*
G04 #@! TA.AperFunction,ComponentPad*
%ADD17RoundRect,0.275000X0.275000X0.625000X-0.275000X0.625000X-0.275000X-0.625000X0.275000X-0.625000X0*%
G04 #@! TD*
G04 #@! TA.AperFunction,SMDPad,CuDef*
%ADD18RotRect,1.270000X5.080000X25.000000*%
G04 #@! TD*
G04 #@! TA.AperFunction,SMDPad,CuDef*
%ADD19C,17.800000*%
G04 #@! TD*
G04 #@! TA.AperFunction,ComponentPad*
%ADD20C,1.500000*%
G04 #@! TD*
G04 #@! TA.AperFunction,ComponentPad*
%ADD21C,1.440000*%
G04 #@! TD*
G04 #@! TA.AperFunction,ViaPad*
%ADD22C,5.000000*%
G04 #@! TD*
G04 #@! TA.AperFunction,ViaPad*
%ADD23C,5.500000*%
G04 #@! TD*
G04 #@! TA.AperFunction,Conductor*
%ADD24C,0.200000*%
G04 #@! TD*
G04 APERTURE END LIST*
D10*
X74710000Y-68730000D03*
X74710000Y-61110000D03*
D11*
X94160000Y-87100000D03*
X97410001Y-92729166D03*
X90262886Y-89350001D03*
X93512886Y-94979166D03*
D12*
X57690000Y-78540000D03*
D13*
X57690000Y-81080000D03*
D14*
X77170000Y-54660000D03*
D15*
X79710000Y-54660000D03*
D16*
X59340000Y-69340000D03*
D17*
X58070000Y-71410000D03*
X56800000Y-69340000D03*
D18*
X63538234Y-89991623D03*
X83449818Y-80706697D03*
D19*
X73494026Y-85349160D03*
D10*
X46271938Y-93669347D03*
X40030000Y-98040000D03*
D11*
X62493636Y-107357466D03*
X61927124Y-100882201D03*
X66976512Y-106965265D03*
X66410000Y-100490000D03*
D20*
X82490000Y-62080000D03*
X85890000Y-62080000D03*
D21*
X50130000Y-82890000D03*
X52670000Y-80350000D03*
X50130000Y-77810000D03*
D14*
X88435000Y-54810000D03*
D15*
X90975000Y-54810000D03*
D10*
X95670000Y-73660000D03*
X95670000Y-81280000D03*
X107820000Y-73660000D03*
X107820000Y-81280000D03*
X99720000Y-73660000D03*
X99720000Y-81280000D03*
X111870000Y-73660000D03*
X111870000Y-81280000D03*
X103770000Y-73660000D03*
X103770000Y-81280000D03*
D22*
X37510000Y-110940000D03*
D23*
X68920000Y-39820000D03*
D24*
X68926612Y-95380000D02*
X77980000Y-95380000D01*
X66410000Y-100490000D02*
X66410000Y-106398753D01*
X77980000Y-95380000D02*
X83449817Y-89910183D01*
X85356697Y-80706697D02*
X83449817Y-80706697D01*
X83449817Y-89910183D02*
X83449817Y-80706697D01*
X63538235Y-89991623D02*
X68926612Y-95380000D01*
X93512886Y-92600001D02*
X93512886Y-94979166D01*
X63538235Y-97618235D02*
X63538235Y-89991623D01*
X66410000Y-106398753D02*
X66976512Y-106965265D01*
X90262886Y-89350001D02*
X93512886Y-92600001D01*
X90262886Y-85612886D02*
X85356697Y-80706697D01*
X66410000Y-100490000D02*
X63538235Y-97618235D01*
X90262886Y-89350001D02*
X90262886Y-85612886D01*
X60040000Y-78730000D02*
X60040000Y-75920000D01*
X56520000Y-82890000D02*
X58350000Y-81060000D01*
X61959160Y-85349160D02*
X73494026Y-85349160D01*
X56800000Y-72680000D02*
X56800000Y-69740000D01*
X73494026Y-85349160D02*
X85890000Y-72953186D01*
X50130000Y-82890000D02*
X56520000Y-82890000D01*
X57690000Y-81080000D02*
X61959160Y-85349160D01*
X60040000Y-75920000D02*
X56800000Y-72680000D01*
X57690000Y-81080000D02*
X60040000Y-78730000D01*
X85890000Y-72953186D02*
X85890000Y-62080000D01*
X78371000Y-53459000D02*
X87084000Y-53459000D01*
X77170000Y-54660000D02*
X78371000Y-53459000D01*
X74420000Y-54660000D02*
X77170000Y-54660000D01*
X87084000Y-53459000D02*
X88435000Y-54810000D01*
X59340000Y-69740000D02*
X74420000Y-54660000D01*
X92070000Y-73660000D02*
X89430000Y-71020000D01*
X89527500Y-56257500D02*
X90975000Y-54810000D01*
X79710000Y-54660000D02*
X81307500Y-56257500D01*
X81307500Y-56257500D02*
X89527500Y-56257500D01*
X89430000Y-71020000D02*
X89430000Y-56355000D01*
X89430000Y-56355000D02*
X89527500Y-56257500D01*
X95670000Y-73660000D02*
X111870000Y-73660000D01*
X95670000Y-73660000D02*
X92070000Y-73660000D01*
X53910000Y-79110000D02*
X57760000Y-79110000D01*
X52670000Y-80350000D02*
X53910000Y-79110000D01*
X57760000Y-79110000D02*
X58350000Y-78520000D01*
X68706793Y-68640000D02*
X74710000Y-68730000D01*
X79483032Y-65086968D02*
X82490000Y-62080000D01*
X78513032Y-65086968D02*
X79483032Y-65086968D01*
X66336793Y-71010000D02*
X68706793Y-68640000D01*
X74710000Y-68730000D02*
X78513032Y-65086968D01*
X58070000Y-71010000D02*
X66336793Y-71010000D01*
X74710000Y-61110000D02*
X77499999Y-58480000D01*
X97410000Y-90350000D02*
X97410000Y-92729166D01*
X95670000Y-85590000D02*
X94160000Y-87100000D01*
X95670000Y-81280000D02*
X111870000Y-81280000D01*
X87910000Y-59980000D02*
X87910000Y-73520000D01*
X77499999Y-58480000D02*
X86410000Y-58480000D01*
X86410000Y-58480000D02*
X87910000Y-59980000D01*
X87910000Y-73520000D02*
X95670000Y-81280000D01*
X95670000Y-81280000D02*
X95670000Y-85590000D01*
X94160000Y-87100000D02*
X97410000Y-90350000D01*
X51476075Y-89360000D02*
X55880000Y-89360000D01*
X62493636Y-102509388D02*
X62493636Y-107357466D01*
X55880000Y-89360000D02*
X61927124Y-95407124D01*
X61927124Y-101942876D02*
X62493636Y-102509388D01*
X46271938Y-93669347D02*
X47166728Y-93669347D01*
X47166728Y-93669347D02*
X51476075Y-89360000D01*
X61927124Y-100882201D02*
X61927124Y-101942876D01*
X61927124Y-95407124D02*
X61927124Y-100882201D01*
X40030000Y-94760000D02*
X40030000Y-98040000D01*
X45670000Y-89120000D02*
X40030000Y-94760000D01*
X48270000Y-77810000D02*
X45670000Y-80410000D01*
X50130000Y-77810000D02*
X48270000Y-77810000D01*
X45670000Y-80410000D02*
X45670000Y-89120000D01*
M02*
